<?xml version="1.0" standalone="no"?>
<!DOCTYPE svg PUBLIC "-//W3C//DTD SVG 20010904//EN"
 "http://www.w3.org/TR/2001/REC-SVG-20010904/DTD/svg10.dtd">
<svg version="1.0" xmlns="http://www.w3.org/2000/svg"
 width="936.000000pt" height="861.000000pt" viewBox="0 0 936.000000 861.000000"
 preserveAspectRatio="xMidYMid meet">
<g transform="translate(0.000000,861.000000) scale(0.100000,-0.100000)"
fill="#4F46E5" stroke="none">
<path d="M5811 8222 l-44 -17 -38 -45 -39 -46 0 -2094 0 -2093 25 -39 c14 -21
43 -49 65 -63 l40 -25 49 0 49 0 51 26 c60 31 73 46 92 99 l14 40 -5 1935 c-3
1064 -2 1938 1 1943 4 5 1046 12 1228 7 l14 0 -6 -128 c-9 -168 -9 -3308 -1
-3351 l7 -32 43 -43 43 -44 46 -6 c25 -4 66 -4 92 0 l46 7 42 42 42 42 7 37
c4 20 7 864 7 1875 l-1 1839 -10 27 c-16 41 -70 90 -120 108 l-45 16 -825 -1
-825 0 -44 -16z"/>
<path d="M3186 6833 c-40 -6 -94 -44 -120 -85 l-21 -33 -2 -3080 c-1 -1694 0
-3104 3 -3134 l6 -54 47 -47 47 -47 32 -6 c47 -10 1702 -9 1732 0 35 11 61 32
93 74 l27 36 0 3136 0 3136 -48 49 -47 49 -34 6 c-36 7 -1666 7 -1715 0z
m1460 -376 c5 -5 6 -5728 1 -5734 -5 -5 -1218 -5 -1223 0 -2 2 -4 1292 -4
2867 l-1 2863 10 6 c10 7 1211 5 1217 -2z"/>
<path d="M1350 5440 l-825 -5 -25 -14 c-14 -8 -39 -30 -56 -49 l-32 -35 -10
-56 -11 -56 -1 -2340 -1 -2340 12 -54 11 -54 42 -42 43 -42 39 -8 c46 -9 1718
-7 1742 2 27 11 63 46 88 85 l24 38 0 2420 0 2419 -32 46 -32 45 -40 19 c-58
28 -33 27 -936 21z m651 -2549 c-1 -1190 -2 -2165 -4 -2167 -3 -3 -1138 -7
-1214 -4 l-13 0 0 2170 0 2170 615 -2 616 -3 0 -2164z"/>
<path d="M8535 4642 c-64 -23 -85 -41 -253 -231 -47 -53 -90 -101 -96 -107 -6
-6 -58 -62 -116 -125 -58 -62 -139 -150 -180 -194 -176 -188 -173 -185 -339
-365 -74 -80 -145 -157 -160 -171 -14 -14 -64 -68 -111 -120 -69 -76 -157
-172 -235 -255 -87 -93 -212 -230 -245 -269 -24 -27 -46 -52 -49 -55 -3 -3
-40 -43 -81 -90 -107 -122 -90 -119 -171 -33 -35 38 -161 167 -280 288 -119
121 -272 277 -340 346 -68 69 -139 134 -158 143 -85 44 -212 2 -257 -86 l-15
-29 -1 -57 -1 -58 16 -29 c8 -17 235 -251 504 -522 l488 -492 42 -20 42 -21
41 0 41 0 38 19 38 20 74 83 c40 46 102 112 136 148 122 129 156 165 212 230
72 83 67 78 126 141 28 30 82 88 120 129 39 42 122 131 185 199 63 68 120 129
125 135 59 65 225 247 245 267 106 110 170 179 260 279 57 63 138 151 180 195
42 44 106 112 141 150 75 81 231 248 239 255 3 3 13 20 23 38 l17 34 0 44 0
44 -30 49 -31 49 -34 21 c-38 22 -118 34 -150 23z"/>
<path d="M7437 2303 l-28 -4 -52 -50 -52 -50 0 -734 c-1 -404 -3 -737 -7 -740
-7 -7 -1218 -8 -1226 -1 -3 4 -5 247 -3 541 l3 535 -12 37 c-15 48 -53 89
-104 114 l-40 19 -43 0 c-69 0 -138 -43 -171 -105 l-15 -30 1 -687 1 -687 28
-39 28 -40 43 -22 44 -22 846 1 c466 1 861 4 879 7 l32 6 40 40 40 41 5 36 c3
20 7 410 8 866 l3 830 -21 40 -21 40 -39 26 -39 26 -50 5 c-27 3 -63 3 -78 1z"/>
</g>
</svg>
